# xmcd
#
# Track frame offsets:
#	150
#	4210
#	26864
#	47532
#	64881
#	82814
#	100872
#	123234
#	144903
#	150216
#	164838
#	182702
#	198866
#	217281
#	222234
#	235562
#
# Disc length: 3368 seconds
#
# Revision: 1
# Processed by: cddbd v1.5.2PL0 Copyright (c) Steve Scherf et al.
# Submitted via: audiograbber 1.83.01
#
DISCID=d50d2610
DTITLE=Missy Elliott - Miss E So Addictive
DYEAR=1900
DGENRE=RnB
TTITLE0=So addictive (intro)
TTITLE1=Dog in Heat
TTITLE2=One Minute Man
TTITLE3=Lick Shots
TTITLE4=Get Ur Freak On
TTITLE5=Old School Joint
TTITLE6=Take Away
TTITLE7=4 My People
TTITLE8=Bus A Bus Interlude
TTITLE9=Whatcha Gon' Do
TTITLE10=Step Of
TTITLE11=X-tasy
TTITLE12=Slap! Slap! Slap!
TTITLE13=I´ve Changed
TTITLE14=My People (Basement Jaxx Remix)
TTITLE15=Hot Boyz
EXTD=
EXTT0=
EXTT1=
EXTT2=
EXTT3=
EXTT4=
EXTT5=
EXTT6=
EXTT7=
EXTT8=
EXTT9=
EXTT10=
EXTT11=
EXTT12=
EXTT13=
EXTT14=
EXTT15=
PLAYORDER=
